<mxfile host="app.diagrams.net" modified="2020-10-22T01:22:48.620Z" agent="5.0 (Windows NT 10.0; Win64; x64) AppleWebKit/537.36 (KHTML, like Gecko) Chrome/80.0.3987.106 Safari/537.36" etag="kO9QhbAfz-cqDnb2kAqU" version="13.8.1" type="github">
  <diagram id="U9pRET_PEwWb4LvltDBA" name="Page-1">
    <mxGraphModel dx="981" dy="526" grid="1" gridSize="10" guides="1" tooltips="1" connect="1" arrows="1" fold="1" page="1" pageScale="1" pageWidth="827" pageHeight="1169" math="0" shadow="0">
      <root>
        <mxCell id="0" />
        <mxCell id="1" parent="0" />
        <mxCell id="6jTOfV9ujhb1ozX2l0Xk-4" value="text" style="rounded=1;whiteSpace=wrap;html=1;" vertex="1" parent="1">
          <mxGeometry x="110" y="60" width="110" height="30" as="geometry" />
        </mxCell>
        <mxCell id="6jTOfV9ujhb1ozX2l0Xk-6" value="" style="endArrow=none;dashed=1;html=1;entryX=0.5;entryY=1;entryDx=0;entryDy=0;" edge="1" parent="1" target="6jTOfV9ujhb1ozX2l0Xk-4">
          <mxGeometry width="50" height="50" relative="1" as="geometry">
            <mxPoint x="165" y="440" as="sourcePoint" />
            <mxPoint x="470" y="190" as="targetPoint" />
          </mxGeometry>
        </mxCell>
      </root>
    </mxGraphModel>
  </diagram>
</mxfile>
